<?xml version="1.0" encoding="utf-8"?><!-- Uploaded to: SVG Repo, www.svgrepo.com, Generator: SVG Repo Mixer Tools -->
<svg width="800px" height="800px" viewBox="0 0 64 64" xmlns="http://www.w3.org/2000/svg" xmlns:xlink="http://www.w3.org/1999/xlink" aria-hidden="true" role="img" class="iconify iconify--emojione" preserveAspectRatio="xMidYMid meet"><path d="M2 32c0 8.2 6.8 15 15 15h30c8.3 0 15-6.8 15-15s-6.7-15-15-15H17C8.8 17 2 23.8 2 32z" fill="#94989b"></path><path d="M3.9 32c0 7.2 5.9 13.1 13.1 13.1h30c7.2 0 13.1-5.9 13.1-13.1S54.2 18.9 47 18.9H17C9.8 18.9 3.9 24.8 3.9 32" fill="#3e4347"></path><circle cx="32" cy="32" r="7.5" fill="#ffe62e"></circle><circle cx="13.2" cy="32" r="7.5" fill="#ed4c5c"></circle><circle cx="50.8" cy="32" r="7.5" fill="#83bf4f"></circle></svg>